# xmcd
#
# Track frame offsets: 
#        150
#        14940
#        31467
#        42540
#        52865
#        64732
#        77700
#        91242
#        104490
#        119277
#
# Disc length: 1806 seconds
#
# Revision: 0
# Processed by: cddbd v1.4PL0 Copyright (c) Steve Scherf et al.
# Submitted via: ExactAudioCopy v0.90b2
#
DISCID=84070c0a
DTITLE=Jeannie C. Riley - Sings The Gospel
DYEAR=1900
DGENRE=Country
TTITLE0=I Don't Have To Die To Get Into Heaven
TTITLE1=Safely In The Arms Of Jesus
TTITLE2=Look Down
TTITLE3=Taking A Walk In The Sun
TTITLE4=You're My Best Friend
TTITLE5=Bigger Than Any Mountain
TTITLE6=Lemonade
TTITLE7=I've Got It All
TTITLE8=God'll Get You For That
TTITLE9=From Harper Valley To The Mountain Top
EXTD=
EXTT0=
EXTT1=
EXTT2=
EXTT3=
EXTT4=
EXTT5=
EXTT6=
EXTT7=
EXTT8=
EXTT9=
PLAYORDER=
